<svg xmlns="http://www.w3.org/2000/svg" viewBox="0 0 1200 1500" width="1200" height="1500">
<defs>
  <filter id="marmol" x="-20%" y="-20%" width="140%" height="140%" color-interpolation-filters="sRGB">
    <feTurbulence type="fractalNoise" baseFrequency="0.0016 0.0026" numOctaves="3" seed="9" result="r"/>
    <feDisplacementMap in="SourceGraphic" in2="r" scale="420" xChannelSelector="R" yChannelSelector="G"/>
    <feGaussianBlur stdDeviation="1.2"/>
  </filter>
</defs>
<g filter="url(#marmol)">
  <g fill="none" stroke="#7fb0ff" stroke-linecap="round">
<circle cx="504" cy="660" r="24" stroke-width="9.9" opacity="0.95"/>
<circle cx="504" cy="660" r="76" stroke-width="18.7" opacity="0.92"/>
<circle cx="504" cy="660" r="128" stroke-width="26.5" opacity="0.90"/>
<circle cx="504" cy="660" r="180" stroke-width="32.7" opacity="0.88"/>
<circle cx="504" cy="660" r="232" stroke-width="36.4" opacity="0.85"/>
<circle cx="504" cy="660" r="284" stroke-width="37.4" opacity="0.82"/>
<circle cx="504" cy="660" r="336" stroke-width="35.4" opacity="0.80"/>
<circle cx="504" cy="660" r="388" stroke-width="30.9" opacity="0.77"/>
<circle cx="504" cy="660" r="440" stroke-width="24.1" opacity="0.75"/>
<circle cx="504" cy="660" r="492" stroke-width="15.8" opacity="0.72"/>
<circle cx="504" cy="660" r="544" stroke-width="12.9" opacity="0.70"/>
<circle cx="504" cy="660" r="596" stroke-width="21.4" opacity="0.67"/>
<circle cx="504" cy="660" r="648" stroke-width="28.8" opacity="0.65"/>
<circle cx="504" cy="660" r="700" stroke-width="34.2" opacity="0.63"/>
<circle cx="504" cy="660" r="752" stroke-width="37.0" opacity="0.60"/>
<circle cx="504" cy="660" r="804" stroke-width="37.0" opacity="0.57"/>
<circle cx="936" cy="1230" r="24" stroke-width="7.7" opacity="0.95"/>
<circle cx="936" cy="1230" r="68" stroke-width="17.3" opacity="0.91"/>
<circle cx="936" cy="1230" r="112" stroke-width="24.9" opacity="0.88"/>
<circle cx="936" cy="1230" r="156" stroke-width="28.7" opacity="0.84"/>
<circle cx="936" cy="1230" r="200" stroke-width="27.8" opacity="0.80"/>
<circle cx="936" cy="1230" r="244" stroke-width="22.6" opacity="0.77"/>
<circle cx="936" cy="1230" r="288" stroke-width="14.0" opacity="0.73"/>
<circle cx="936" cy="1230" r="332" stroke-width="11.2" opacity="0.70"/>
<circle cx="936" cy="1230" r="376" stroke-width="20.3" opacity="0.66"/>
<circle cx="936" cy="1230" r="420" stroke-width="26.7" opacity="0.62"/>
<circle cx="936" cy="1230" r="464" stroke-width="28.9" opacity="0.59"/>
<circle cx="144" cy="1290" r="24" stroke-width="6.3" opacity="0.95"/>
<circle cx="144" cy="1290" r="64" stroke-width="16.9" opacity="0.90"/>
<circle cx="144" cy="1290" r="104" stroke-width="23.2" opacity="0.85"/>
<circle cx="144" cy="1290" r="144" stroke-width="22.6" opacity="0.80"/>
<circle cx="144" cy="1290" r="184" stroke-width="15.3" opacity="0.75"/>
<circle cx="144" cy="1290" r="224" stroke-width="8.2" opacity="0.70"/>
<circle cx="144" cy="1290" r="264" stroke-width="18.3" opacity="0.65"/>
<circle cx="144" cy="1290" r="304" stroke-width="23.6" opacity="0.60"/>
  </g>
  <g fill="#7fb0ff">
<ellipse cx="504" cy="660" rx="192" ry="180" opacity="0.5"/>
<ellipse cx="936" cy="1230" rx="132" ry="120" opacity="0.5"/>
  </g>
</g>
</svg>